<?xml version="1.0" encoding="utf-8"?>
<!-- Generator: Adobe Illustrator 25.3.1, SVG Export Plug-In . SVG Version: 6.00 Build 0)  -->
<svg version="1.1" id="Layer_1" xmlns="http://www.w3.org/2000/svg" xmlns:xlink="http://www.w3.org/1999/xlink" x="0px" y="0px"
	 viewBox="0 0 48 48" style="enable-background:new 0 0 48 48;" xml:space="preserve">
<style type="text/css">
	.st0{fill:#FF612B;}
	.st1{fill:#002677;}
</style>
<g>
	<path class="st0" d="M22.6049,7.8662L4.9216,38.3785c-0.6935,1.1269,0.1734,2.6005,1.4736,2.6005H41.675
		c1.3002,0,2.1671-1.3869,1.4736-2.6005L25.5521,7.8662C24.9453,6.7394,23.2116,6.7394,22.6049,7.8662z"/>
	<path class="st1" d="M26.2455,30.4903h-4.3341V18.7015c0-0.8668,0.5201-1.647,1.3002-1.9937l0,0
		c1.4736-0.6068,3.0339,0.4334,3.0339,1.9937V30.4903z M24.0785,32.6574c-1.3002,0-2.4271,1.1269-2.4271,2.4271
		c0,1.3002,1.1269,2.4271,2.4271,2.4271c1.3869,0,2.4271-1.0402,2.4271-2.4271C26.5056,33.7843,25.3787,32.6574,24.0785,32.6574z"/>
</g>
</svg>
