<?xml version="1.0" encoding="utf-8"?>
<!-- Generator: Adobe Illustrator 25.3.1, SVG Export Plug-In . SVG Version: 6.00 Build 0)  -->
<svg version="1.1" id="Layer_1" xmlns="http://www.w3.org/2000/svg" xmlns:xlink="http://www.w3.org/1999/xlink" x="0px" y="0px"
	 viewBox="0 0 48 48" style="enable-background:new 0 0 48 48;" xml:space="preserve">
<style type="text/css">
	.st0{fill:#002677;}
	.st1{fill:#FF612B;}
</style>
<g>
	<path class="st0" d="M40.4939,24.4365l-2.9876-9.1486l-0.0007,0.0018C35.5478,9.0372,29.7108,4.5,22.8129,4.5
		c-8.5023,0-15.3947,6.8926-15.3947,15.3947c0,5.0316,2.4249,9.4859,6.1579,12.2947v5.1526L28.9708,43.5v-7.1842h3.0789
		c3.4009,0,6.1579-2.757,6.1579-6.1579v-3.0789h0.3201C39.9029,27.0789,40.889,25.7535,40.4939,24.4365z"/>
	<g>
		<path class="st1" d="M29.436,11.7262c0-1.5518-0.8866-2.8281-2.5278-3.5343c-2.9715-1.2162-6.4182-1.2386-9.5383,0.2652
			c-2.5896,1.248-4.6575,3.4361-5.7546,6.0934c-0.581,1.4075-1.0448,2.9995-0.7294,4.5285c0.3101,1.5026,1.465,2.6796,2.9495,3.0613
			c0.5862,0.1508,1.2157,0.1458,1.7975-0.0235c0.5717-0.1665,0.9685-0.4783,1.388-0.889c0.9539-0.934,1.8518-1.8907,2.929-2.6885
			c1.6576-1.2277,3.5499-2.118,5.4923-2.7947c0.5626-0.196,1.1389-0.3551,1.6873-0.59c1.0126-0.4339,1.824-1.2817,2.1457-2.3425
			C29.382,12.4606,29.436,12.0934,29.436,11.7262z"/>
	</g>
</g>
</svg>
