<?xml version="1.0" encoding="utf-8"?>
<!-- Generator: Adobe Illustrator 25.3.1, SVG Export Plug-In . SVG Version: 6.00 Build 0)  -->
<svg version="1.1" xmlns="http://www.w3.org/2000/svg" xmlns:xlink="http://www.w3.org/1999/xlink" x="0px" y="0px"
	 viewBox="0 0 48 48" style="enable-background:new 0 0 48 48;" xml:space="preserve">
<style type="text/css">
	.st0{fill:#FFFFFF;}
	.st1{fill:#FF612B;}
	.st2{fill:#002677;}
</style>
<g id="white_space">
</g>
<g id="Layer_1">
	<rect x="12.3143" y="17.1739" class="st0" width="23.4039" height="13.6523"/>
	<g>
		<g>
			<g>
				<path class="st1" d="M37.6685,18.1685v-2.9449H10.364v2.9449h-0.0195c-3.1595,0-5.8412,2.6135-5.8412,5.8315
					c0,3.2278,2.6817,5.8412,5.8412,5.8412h0.0195v2.9352h27.3045v-2.9352c3.1498-0.0098,5.8217-2.6232,5.8217-5.8412
					C43.4902,20.7917,40.8183,18.1783,37.6685,18.1685z M10.364,27.8909h-0.0195c-2.1064,0-3.8909-1.7846-3.8909-3.8909
					c0-2.1064,1.7845-3.8812,3.8909-3.8812h0.0195V27.8909z M35.7182,30.8261H12.3143V17.1739h23.4039V30.8261z M37.6685,27.8909
					v-7.7721c2.0966,0.0098,3.8714,1.7846,3.8714,3.8812C41.5399,26.0966,39.7651,27.8811,37.6685,27.8909z"/>
			</g>
			<path class="st2" d="M30.8432,22.5373H17.1909c-0.5386,0-0.9752-0.4366-0.9752-0.9752v0c0-0.5386,0.4366-0.9752,0.9752-0.9752
				h13.6523c0.5386,0,0.9752,0.4366,0.9752,0.9752v0C31.8183,22.1007,31.3817,22.5373,30.8432,22.5373z"/>
			<path class="st2" d="M30.8432,27.4131H17.1909c-0.5386,0-0.9752-0.4366-0.9752-0.9752v0c0-0.5386,0.4366-0.9752,0.9752-0.9752
				h13.6523c0.5386,0,0.9752,0.4366,0.9752,0.9752v0C31.8183,26.9765,31.3817,27.4131,30.8432,27.4131z"/>
		</g>
	</g>
</g>
</svg>
