<?xml version="1.0" encoding="utf-8"?>
<!-- Generator: Adobe Illustrator 25.3.1, SVG Export Plug-In . SVG Version: 6.00 Build 0)  -->
<svg version="1.1" xmlns="http://www.w3.org/2000/svg" xmlns:xlink="http://www.w3.org/1999/xlink" x="0px" y="0px"
	 viewBox="0 0 48 48" style="enable-background:new 0 0 48 48;" xml:space="preserve">
<style type="text/css">
	.st0{fill:#FF612B;}
	.st1{fill:#FFFFFF;}
	.st2{fill:#002677;}
</style>
<g id="white_space">
</g>
<g id="Layer_1">
	<g>
		<g>
			<g>
				<path class="st0" d="M42.8513,17.3674H28.9461l-0.6741,2.0222c-0.2321,0.6963-0.8837,1.166-1.6177,1.166h-1.7222
					c-1.1629,0-1.9847-1.1385-1.6185-2.2422v0l0.3188-0.946h-4.7823c-2.5531,0-4.8982,0.8663-6.7783,2.3084l-1.0703-1.0703
					c-1.4242-1.4242-3.7672-1.6341-5.2638-0.2861c-1.5961,1.4375-1.6444,3.8983-0.145,5.3978l2.3733,2.3732
					c-0.3342,1.5004-0.3938,3.1032-0.0077,4.783c1.2023,5.2309,6.0387,9.0405,11.4007,8.8
					c5.9276-0.2659,10.6499-5.1539,10.6499-11.1473c0-0.2763-0.0106-0.542-0.0319-0.8077
					c-0.0318-0.2657-0.0531-0.5314-0.0956-0.7864h9.3692c0.2541,0,0.4841-0.1508,0.5853-0.3839l3.6008-8.2882
					C43.6198,17.8384,43.3108,17.3674,42.8513,17.3674z M8.2228,22.681c-0.8804,0-1.5941-0.7138-1.5941-1.5941
					s0.7137-1.5941,1.5941-1.5941s1.5941,0.7138,1.5941,1.5941S9.1032,22.681,8.2228,22.681z"/>
			</g>
		</g>
	</g>
	<g>
		<path class="st1" d="M19.2407,36.9991c-0.0478,0-0.0956-0.0028-0.1444-0.0084c-4.3081-0.5176-7.753-4.0263-8.1918-8.3442
			c-0.067-0.6592,0.4135-1.248,1.0727-1.3146c0.6634-0.0806,1.249,0.4135,1.3155,1.0727c0.3258,3.2096,2.887,5.8182,6.0896,6.2026
			c0.6582,0.0788,1.1275,0.677,1.0488,1.3352C20.358,36.5518,19.8399,36.9991,19.2407,36.9991z"/>
	</g>
	<g>
		<path class="st2" d="M22.884,16.2628c-0.4927,0-0.9545-0.3057-1.1299-0.7961l-1.7998-5.0305
			c-0.2236-0.6235,0.1013-1.3108,0.7257-1.534c0.624-0.225,1.3108,0.1013,1.534,0.7257l1.7998,5.0305
			c0.2236,0.6235-0.1013,1.3108-0.7257,1.534C23.1545,16.2403,23.0181,16.2628,22.884,16.2628z"/>
	</g>
	<g>
		<path class="st2" d="M26.4162,15.3795c-0.6629,0-1.2002-0.5373-1.2002-1.2002V8.8656c0-0.6629,0.5373-1.2002,1.2002-1.2002
			s1.2002,0.5373,1.2002,1.2002v5.3137C27.6164,14.8423,27.0791,15.3795,26.4162,15.3795z"/>
	</g>
	<g>
		<path class="st2" d="M29.9375,16.2281c-0.1374,0-0.2766-0.0234-0.4126-0.0731c-0.6226-0.2278-0.9423-0.917-0.7145-1.5396
			l1.8209-4.9715c0.2278-0.6235,0.9194-0.9423,1.5396-0.7145c0.6226,0.2279,0.9423,0.917,0.7145,1.5396l-1.8209,4.9715
			C30.8864,15.9271,30.4265,16.2281,29.9375,16.2281z"/>
	</g>
	<circle class="st1" cx="8.2228" cy="21.0869" r="1.5941"/>
</g>
</svg>
